<svg xmlns="http://www.w3.org/2000/svg" xmlns:xlink="http://www.w3.org/1999/xlink" width="500" zoomAndPan="magnify" viewBox="0 0 375 374.999991" height="500" preserveAspectRatio="xMidYMid meet" version="1.0"><defs><g/></defs><rect x="-37.5" width="450" fill="#ffffff" y="-37.499999" height="449.999989" fill-opacity="1"/><rect x="-37.5" width="450" fill="#1f355f" y="-37.499999" height="449.999989" fill-opacity="1"/><g fill="#fffbe1" fill-opacity="1"><g transform="translate(65.282692, 192.985768)"><g><path d="M 2.484375 -21.703125 C 3.984375 -21.898438 5.523438 -22 7.109375 -22 C 10.054688 -22 12.296875 -21.304688 13.828125 -19.921875 C 15.359375 -18.546875 16.125 -16.484375 16.125 -13.734375 C 16.125 -11.273438 15.285156 -9.332031 13.609375 -7.90625 C 12.035156 -6.5625 10.015625 -5.890625 7.546875 -5.890625 C 7.265625 -5.890625 6.957031 -5.90625 6.625 -5.9375 L 6.625 0 L 2.484375 0 Z M 7.59375 -18.09375 C 7.269531 -18.09375 6.945312 -18.078125 6.625 -18.046875 L 6.625 -9.515625 C 6.96875 -9.472656 7.390625 -9.453125 7.890625 -9.453125 C 8.390625 -9.453125 8.910156 -9.554688 9.453125 -9.765625 C 9.992188 -9.972656 10.445312 -10.269531 10.8125 -10.65625 C 11.582031 -11.4375 11.96875 -12.472656 11.96875 -13.765625 C 11.96875 -16.648438 10.507812 -18.09375 7.59375 -18.09375 Z M 7.59375 -18.09375 "/></g></g></g><g fill="#fffbe1" fill-opacity="1"><g transform="translate(82.636406, 192.985768)"><g><path d="M 13.65625 -3.890625 C 14.320312 -3.890625 14.785156 -3.957031 15.046875 -4.09375 L 15.109375 -4.078125 L 14.953125 0 L 2.796875 0 L 2.796875 -21.703125 C 3.085938 -21.679688 3.410156 -21.664062 3.765625 -21.65625 L 4.90625 -21.625 C 5.664062 -21.601562 6.488281 -21.59375 7.375 -21.59375 C 9.851562 -21.59375 12.300781 -21.632812 14.71875 -21.71875 C 14.601562 -20.769531 14.546875 -19.5 14.546875 -17.90625 C 14.546875 -17.726562 14.554688 -17.597656 14.578125 -17.515625 L 14.546875 -17.46875 C 13.984375 -17.632812 13.179688 -17.71875 12.140625 -17.71875 L 7.03125 -17.71875 L 7.03125 -13.578125 L 10.875 -13.578125 C 12.0625 -13.578125 12.773438 -13.609375 13.015625 -13.671875 L 13.0625 -9.65625 C 12.550781 -9.707031 11.882812 -9.734375 11.0625 -9.734375 L 7.03125 -9.734375 L 7.03125 -3.890625 Z M 13.65625 -3.890625 "/></g></g></g><g fill="#fffbe1" fill-opacity="1"><g transform="translate(99.99012, 192.985768)"><g><path d="M 10.578125 0.09375 C 10.066406 0.03125 8.734375 0 6.578125 0 L 6.0625 0 L 6.0625 -17.953125 L 2.84375 -17.953125 C 1.882812 -17.953125 1.316406 -17.90625 1.140625 -17.8125 C 0.972656 -17.71875 0.84375 -17.628906 0.75 -17.546875 L 0.703125 -17.5625 L 0.703125 -21.71875 L 0.75 -21.765625 C 1.101562 -21.648438 2.066406 -21.59375 3.640625 -21.59375 L 13.8125 -21.59375 C 14.769531 -21.59375 15.332031 -21.640625 15.5 -21.734375 C 15.675781 -21.835938 15.8125 -21.925781 15.90625 -22 L 15.953125 -21.984375 L 15.953125 -17.828125 L 15.90625 -17.78125 C 15.550781 -17.894531 14.585938 -17.953125 13.015625 -17.953125 L 10.578125 -17.953125 Z M 10.578125 0.09375 "/></g></g></g><g fill="#fffbe1" fill-opacity="1"><g transform="translate(117.343831, 192.985768)"><g/></g></g><g fill="#fffbe1" fill-opacity="1"><g transform="translate(129.064543, 192.985768)"><g><path d="M 12.03125 0.0625 C 11.6875 0.0195312 11.117188 0 10.328125 0 L 8.546875 0 C 8.242188 0 7.976562 0.0078125 7.75 0.03125 L 7.734375 0 C 7.773438 -0.0703125 7.796875 -0.15625 7.796875 -0.25 C 7.796875 -0.351562 7.785156 -0.457031 7.765625 -0.5625 C 7.753906 -0.675781 7.707031 -0.875 7.625 -1.15625 C 7.550781 -1.4375 7.4375 -1.84375 7.28125 -2.375 L 6.59375 -4.546875 L 0.546875 -21.65625 C 1.222656 -21.613281 2.078125 -21.59375 3.109375 -21.59375 C 4.148438 -21.59375 4.816406 -21.632812 5.109375 -21.71875 L 10 -6.96875 L 14.28125 -21.65625 C 14.9375 -21.613281 15.738281 -21.59375 16.6875 -21.59375 C 17.988281 -21.59375 18.75 -21.632812 18.96875 -21.71875 L 13.03125 -4.59375 C 13.03125 -4.59375 12.84375 -3.957031 12.46875 -2.6875 C 12.15625 -1.613281 12 -0.914062 12 -0.59375 C 12 -0.269531 12.019531 -0.0664062 12.0625 0.015625 Z M 12.03125 0.0625 "/></g></g></g><g fill="#fffbe1" fill-opacity="1"><g transform="translate(149.129245, 192.985768)"><g><path d="M 13.65625 -3.890625 C 14.320312 -3.890625 14.785156 -3.957031 15.046875 -4.09375 L 15.109375 -4.078125 L 14.953125 0 L 2.796875 0 L 2.796875 -21.703125 C 3.085938 -21.679688 3.410156 -21.664062 3.765625 -21.65625 L 4.90625 -21.625 C 5.664062 -21.601562 6.488281 -21.59375 7.375 -21.59375 C 9.851562 -21.59375 12.300781 -21.632812 14.71875 -21.71875 C 14.601562 -20.769531 14.546875 -19.5 14.546875 -17.90625 C 14.546875 -17.726562 14.554688 -17.597656 14.578125 -17.515625 L 14.546875 -17.46875 C 13.984375 -17.632812 13.179688 -17.71875 12.140625 -17.71875 L 7.03125 -17.71875 L 7.03125 -13.578125 L 10.875 -13.578125 C 12.0625 -13.578125 12.773438 -13.609375 13.015625 -13.671875 L 13.0625 -9.65625 C 12.550781 -9.707031 11.882812 -9.734375 11.0625 -9.734375 L 7.03125 -9.734375 L 7.03125 -3.890625 Z M 13.65625 -3.890625 "/></g></g></g><g fill="#fffbe1" fill-opacity="1"><g transform="translate(166.482961, 192.985768)"><g><path d="M 10.578125 0.09375 C 10.066406 0.03125 8.734375 0 6.578125 0 L 6.0625 0 L 6.0625 -17.953125 L 2.84375 -17.953125 C 1.882812 -17.953125 1.316406 -17.90625 1.140625 -17.8125 C 0.972656 -17.71875 0.84375 -17.628906 0.75 -17.546875 L 0.703125 -17.5625 L 0.703125 -21.71875 L 0.75 -21.765625 C 1.101562 -21.648438 2.066406 -21.59375 3.640625 -21.59375 L 13.8125 -21.59375 C 14.769531 -21.59375 15.332031 -21.640625 15.5 -21.734375 C 15.675781 -21.835938 15.8125 -21.925781 15.90625 -22 L 15.953125 -21.984375 L 15.953125 -17.828125 L 15.90625 -17.78125 C 15.550781 -17.894531 14.585938 -17.953125 13.015625 -17.953125 L 10.578125 -17.953125 Z M 10.578125 0.09375 "/></g></g></g><g fill="#fffbe1" fill-opacity="1"><g transform="translate(183.836677, 192.985768)"><g/></g></g><g fill="#fffbe1" fill-opacity="1"><g transform="translate(195.557395, 192.985768)"><g><path d="M 4.5625 -2.5625 C 3.570312 -3.507812 2.789062 -4.640625 2.21875 -5.953125 C 1.65625 -7.273438 1.375 -8.722656 1.375 -10.296875 C 1.375 -11.867188 1.640625 -13.359375 2.171875 -14.765625 C 2.703125 -16.179688 3.457031 -17.421875 4.4375 -18.484375 C 5.425781 -19.554688 6.617188 -20.410156 8.015625 -21.046875 C 9.410156 -21.679688 10.976562 -22 12.71875 -22 C 15.695312 -22 18.210938 -21.054688 20.265625 -19.171875 C 22.453125 -17.160156 23.546875 -14.445312 23.546875 -11.03125 C 23.546875 -7.71875 22.421875 -4.960938 20.171875 -2.765625 C 18.785156 -1.410156 17.132812 -0.476562 15.21875 0.03125 C 14.269531 0.28125 13.164062 0.40625 11.90625 0.40625 C 10.644531 0.40625 9.351562 0.144531 8.03125 -0.375 C 6.707031 -0.894531 5.550781 -1.625 4.5625 -2.5625 Z M 5.890625 -10.515625 C 5.890625 -9.515625 6.054688 -8.59375 6.390625 -7.75 C 6.734375 -6.90625 7.203125 -6.175781 7.796875 -5.5625 C 9.054688 -4.289062 10.6875 -3.65625 12.6875 -3.65625 C 14.570312 -3.65625 16.085938 -4.265625 17.234375 -5.484375 C 18.410156 -6.753906 19 -8.484375 19 -10.671875 C 19 -12.722656 18.441406 -14.4375 17.328125 -15.8125 C 16.117188 -17.28125 14.472656 -18.015625 12.390625 -18.015625 C 10.367188 -18.015625 8.757812 -17.269531 7.5625 -15.78125 C 6.445312 -14.382812 5.890625 -12.628906 5.890625 -10.515625 Z M 5.890625 -10.515625 "/></g></g></g><g fill="#fffbe1" fill-opacity="1"><g transform="translate(221.17394, 192.985768)"><g><path d="M 2.9375 0 C 3 -0.363281 3.03125 -0.765625 3.03125 -1.203125 L 3.03125 -21.59375 L 6.28125 -21.59375 L 14.890625 -8.046875 L 14.890625 -20.484375 C 14.890625 -21.078125 14.832031 -21.445312 14.71875 -21.59375 L 19.109375 -21.59375 C 19.054688 -21.15625 19.03125 -20.679688 19.03125 -20.171875 L 19.03125 0 L 15.65625 0 L 7.171875 -13 L 7.171875 0 Z M 2.9375 0 "/></g></g></g><g fill="#fffbe1" fill-opacity="1"><g transform="translate(243.933399, 192.985768)"><g><path d="M 5.953125 0 C 4.367188 0 3.316406 0.03125 2.796875 0.09375 L 2.796875 -21.6875 C 3.054688 -21.625 3.59375 -21.59375 4.40625 -21.59375 C 5.226562 -21.59375 6.175781 -21.613281 7.25 -21.65625 L 7.25 -3.890625 L 10.625 -3.890625 C 11.59375 -3.890625 12.367188 -3.925781 12.953125 -4 C 12.878906 -1.457031 12.84375 -0.140625 12.84375 -0.046875 L 12.84375 0.109375 C 11.78125 0.0351562 10 0 7.5 0 Z M 5.953125 0 "/></g></g></g><g fill="#fffbe1" fill-opacity="1"><g transform="translate(258.511203, 192.985768)"><g><path d="M 3.296875 -21.65625 C 4.378906 -21.613281 5.035156 -21.59375 5.265625 -21.59375 L 6.421875 -21.59375 C 7.003906 -21.59375 7.46875 -21.632812 7.8125 -21.71875 L 7.796875 0 L 3.296875 0 Z M 3.296875 -21.65625 "/></g></g></g><g fill="#fffbe1" fill-opacity="1"><g transform="translate(270.313082, 192.985768)"><g><path d="M 2.9375 0 C 3 -0.363281 3.03125 -0.765625 3.03125 -1.203125 L 3.03125 -21.59375 L 6.28125 -21.59375 L 14.890625 -8.046875 L 14.890625 -20.484375 C 14.890625 -21.078125 14.832031 -21.445312 14.71875 -21.59375 L 19.109375 -21.59375 C 19.054688 -21.15625 19.03125 -20.679688 19.03125 -20.171875 L 19.03125 0 L 15.65625 0 L 7.171875 -13 L 7.171875 0 Z M 2.9375 0 "/></g></g></g><g fill="#fffbe1" fill-opacity="1"><g transform="translate(293.072541, 192.985768)"><g><path d="M 13.65625 -3.890625 C 14.320312 -3.890625 14.785156 -3.957031 15.046875 -4.09375 L 15.109375 -4.078125 L 14.953125 0 L 2.796875 0 L 2.796875 -21.703125 C 3.085938 -21.679688 3.410156 -21.664062 3.765625 -21.65625 L 4.90625 -21.625 C 5.664062 -21.601562 6.488281 -21.59375 7.375 -21.59375 C 9.851562 -21.59375 12.300781 -21.632812 14.71875 -21.71875 C 14.601562 -20.769531 14.546875 -19.5 14.546875 -17.90625 C 14.546875 -17.726562 14.554688 -17.597656 14.578125 -17.515625 L 14.546875 -17.46875 C 13.984375 -17.632812 13.179688 -17.71875 12.140625 -17.71875 L 7.03125 -17.71875 L 7.03125 -13.578125 L 10.875 -13.578125 C 12.0625 -13.578125 12.773438 -13.609375 13.015625 -13.671875 L 13.0625 -9.65625 C 12.550781 -9.707031 11.882812 -9.734375 11.0625 -9.734375 L 7.03125 -9.734375 L 7.03125 -3.890625 Z M 13.65625 -3.890625 "/></g></g></g><g fill="#ffffff" fill-opacity="1"><g transform="translate(92.179884, 208.279087)"><g><path d="M 9.296875 -9.3125 L 9.296875 0 L 8.328125 0 L 8.328125 -4.296875 L 2.5 -4.296875 L 2.5 0 L 1.515625 0 L 1.515625 -9.3125 L 2.5 -9.3125 L 2.5 -5.15625 L 8.328125 -5.15625 L 8.328125 -9.3125 Z M 9.296875 -9.3125 "/></g></g></g><g fill="#ffffff" fill-opacity="1"><g transform="translate(107.562544, 208.279087)"><g><path d="M 5.578125 0.078125 C 4.660156 0.078125 3.828125 -0.125 3.078125 -0.53125 C 2.328125 -0.945312 1.738281 -1.515625 1.3125 -2.234375 C 0.894531 -2.953125 0.6875 -3.757812 0.6875 -4.65625 C 0.6875 -5.550781 0.894531 -6.359375 1.3125 -7.078125 C 1.738281 -7.796875 2.328125 -8.359375 3.078125 -8.765625 C 3.828125 -9.179688 4.660156 -9.390625 5.578125 -9.390625 C 6.503906 -9.390625 7.335938 -9.1875 8.078125 -8.78125 C 8.816406 -8.375 9.398438 -7.804688 9.828125 -7.078125 C 10.253906 -6.359375 10.46875 -5.550781 10.46875 -4.65625 C 10.46875 -3.757812 10.253906 -2.945312 9.828125 -2.21875 C 9.398438 -1.5 8.816406 -0.9375 8.078125 -0.53125 C 7.335938 -0.125 6.503906 0.078125 5.578125 0.078125 Z M 5.578125 -0.796875 C 6.316406 -0.796875 6.984375 -0.960938 7.578125 -1.296875 C 8.171875 -1.628906 8.632812 -2.085938 8.96875 -2.671875 C 9.3125 -3.265625 9.484375 -3.925781 9.484375 -4.65625 C 9.484375 -5.382812 9.3125 -6.039062 8.96875 -6.625 C 8.632812 -7.21875 8.171875 -7.679688 7.578125 -8.015625 C 6.984375 -8.347656 6.316406 -8.515625 5.578125 -8.515625 C 4.847656 -8.515625 4.179688 -8.347656 3.578125 -8.015625 C 2.984375 -7.679688 2.515625 -7.21875 2.171875 -6.625 C 1.828125 -6.039062 1.65625 -5.382812 1.65625 -4.65625 C 1.65625 -3.925781 1.828125 -3.265625 2.171875 -2.671875 C 2.515625 -2.085938 2.984375 -1.628906 3.578125 -1.296875 C 4.179688 -0.960938 4.847656 -0.796875 5.578125 -0.796875 Z M 5.578125 -0.796875 "/></g></g></g><g fill="#ffffff" fill-opacity="1"><g transform="translate(123.290839, 208.279087)"><g><path d="M 4.078125 0.078125 C 3.390625 0.078125 2.726562 -0.03125 2.09375 -0.25 C 1.457031 -0.46875 0.96875 -0.757812 0.625 -1.125 L 1.015625 -1.890625 C 1.347656 -1.554688 1.789062 -1.285156 2.34375 -1.078125 C 2.90625 -0.867188 3.484375 -0.765625 4.078125 -0.765625 C 4.910156 -0.765625 5.535156 -0.914062 5.953125 -1.21875 C 6.367188 -1.519531 6.578125 -1.914062 6.578125 -2.40625 C 6.578125 -2.78125 6.460938 -3.078125 6.234375 -3.296875 C 6.015625 -3.515625 5.738281 -3.679688 5.40625 -3.796875 C 5.082031 -3.921875 4.628906 -4.054688 4.046875 -4.203125 C 3.335938 -4.378906 2.773438 -4.546875 2.359375 -4.703125 C 1.941406 -4.867188 1.582031 -5.117188 1.28125 -5.453125 C 0.988281 -5.796875 0.84375 -6.253906 0.84375 -6.828125 C 0.84375 -7.304688 0.96875 -7.738281 1.21875 -8.125 C 1.46875 -8.507812 1.847656 -8.816406 2.359375 -9.046875 C 2.878906 -9.273438 3.519531 -9.390625 4.28125 -9.390625 C 4.8125 -9.390625 5.332031 -9.316406 5.84375 -9.171875 C 6.351562 -9.023438 6.796875 -8.820312 7.171875 -8.5625 L 6.828125 -7.78125 C 6.441406 -8.039062 6.023438 -8.234375 5.578125 -8.359375 C 5.140625 -8.484375 4.707031 -8.546875 4.28125 -8.546875 C 3.46875 -8.546875 2.851562 -8.390625 2.4375 -8.078125 C 2.03125 -7.765625 1.828125 -7.359375 1.828125 -6.859375 C 1.828125 -6.484375 1.9375 -6.179688 2.15625 -5.953125 C 2.382812 -5.734375 2.671875 -5.5625 3.015625 -5.4375 C 3.359375 -5.320312 3.816406 -5.191406 4.390625 -5.046875 C 5.066406 -4.878906 5.613281 -4.710938 6.03125 -4.546875 C 6.457031 -4.390625 6.816406 -4.144531 7.109375 -3.8125 C 7.398438 -3.476562 7.546875 -3.023438 7.546875 -2.453125 C 7.546875 -1.984375 7.421875 -1.554688 7.171875 -1.171875 C 6.921875 -0.785156 6.53125 -0.476562 6 -0.25 C 5.476562 -0.03125 4.835938 0.078125 4.078125 0.078125 Z M 4.078125 0.078125 "/></g></g></g><g fill="#ffffff" fill-opacity="1"><g transform="translate(136.041334, 208.279087)"><g><path d="M 5 -9.3125 C 6.1875 -9.3125 7.113281 -9.023438 7.78125 -8.453125 C 8.457031 -7.890625 8.796875 -7.109375 8.796875 -6.109375 C 8.796875 -5.117188 8.457031 -4.34375 7.78125 -3.78125 C 7.113281 -3.21875 6.1875 -2.9375 5 -2.9375 L 2.5 -2.9375 L 2.5 0 L 1.515625 0 L 1.515625 -9.3125 Z M 4.96875 -3.796875 C 5.894531 -3.796875 6.597656 -4 7.078125 -4.40625 C 7.566406 -4.8125 7.8125 -5.378906 7.8125 -6.109375 C 7.8125 -6.867188 7.566406 -7.445312 7.078125 -7.84375 C 6.597656 -8.25 5.894531 -8.453125 4.96875 -8.453125 L 2.5 -8.453125 L 2.5 -3.796875 Z M 4.96875 -3.796875 "/></g></g></g><g fill="#ffffff" fill-opacity="1"><g transform="translate(150.161096, 208.279087)"><g><path d="M 1.515625 -9.3125 L 2.5 -9.3125 L 2.5 0 L 1.515625 0 Z M 1.515625 -9.3125 "/></g></g></g><g fill="#ffffff" fill-opacity="1"><g transform="translate(158.750657, 208.279087)"><g><path d="M 3.328125 -8.453125 L 0.046875 -8.453125 L 0.046875 -9.3125 L 7.578125 -9.3125 L 7.578125 -8.453125 L 4.3125 -8.453125 L 4.3125 0 L 3.328125 0 Z M 3.328125 -8.453125 "/></g></g></g><g fill="#ffffff" fill-opacity="1"><g transform="translate(170.956111, 208.279087)"><g><path d="M 7.359375 -2.484375 L 2.171875 -2.484375 L 1.046875 0 L 0.03125 0 L 4.28125 -9.3125 L 5.25 -9.3125 L 9.5 0 L 8.46875 0 Z M 7 -3.28125 L 4.765625 -8.28125 L 2.53125 -3.28125 Z M 7 -3.28125 "/></g></g></g><g fill="#ffffff" fill-opacity="1"><g transform="translate(185.062572, 208.279087)"><g><path d="M 1.515625 -9.3125 L 2.5 -9.3125 L 2.5 -0.84375 L 7.71875 -0.84375 L 7.71875 0 L 1.515625 0 Z M 1.515625 -9.3125 "/></g></g></g><g fill="#ffffff" fill-opacity="1"><g transform="translate(197.467431, 208.279087)"><g/></g></g><g fill="#ffffff" fill-opacity="1"><g transform="translate(205.525239, 208.279087)"><g><path d="M 7.359375 -2.484375 L 2.171875 -2.484375 L 1.046875 0 L 0.03125 0 L 4.28125 -9.3125 L 5.25 -9.3125 L 9.5 0 L 8.46875 0 Z M 7 -3.28125 L 4.765625 -8.28125 L 2.53125 -3.28125 Z M 7 -3.28125 "/></g></g></g><g fill="#ffffff" fill-opacity="1"><g transform="translate(219.631699, 208.279087)"><g><path d="M 9.296875 -9.3125 L 9.296875 0 L 8.484375 0 L 2.5 -7.546875 L 2.5 0 L 1.515625 0 L 1.515625 -9.3125 L 2.328125 -9.3125 L 8.328125 -1.75 L 8.328125 -9.3125 Z M 9.296875 -9.3125 "/></g></g></g><g fill="#ffffff" fill-opacity="1"><g transform="translate(235.014359, 208.279087)"><g><path d="M 1.515625 -9.3125 L 2.5 -9.3125 L 2.5 0 L 1.515625 0 Z M 1.515625 -9.3125 "/></g></g></g><g fill="#ffffff" fill-opacity="1"><g transform="translate(243.603921, 208.279087)"><g><path d="M 11.1875 -9.3125 L 11.1875 0 L 10.234375 0 L 10.234375 -7.453125 L 6.578125 -1.1875 L 6.109375 -1.1875 L 2.453125 -7.40625 L 2.453125 0 L 1.515625 0 L 1.515625 -9.3125 L 2.328125 -9.3125 L 6.375 -2.40625 L 10.375 -9.3125 Z M 11.1875 -9.3125 "/></g></g></g><g fill="#ffffff" fill-opacity="1"><g transform="translate(260.8743, 208.279087)"><g><path d="M 7.359375 -2.484375 L 2.171875 -2.484375 L 1.046875 0 L 0.03125 0 L 4.28125 -9.3125 L 5.25 -9.3125 L 9.5 0 L 8.46875 0 Z M 7 -3.28125 L 4.765625 -8.28125 L 2.53125 -3.28125 Z M 7 -3.28125 "/></g></g></g><g fill="#ffffff" fill-opacity="1"><g transform="translate(274.98076, 208.279087)"><g><path d="M 1.515625 -9.3125 L 2.5 -9.3125 L 2.5 -0.84375 L 7.71875 -0.84375 L 7.71875 0 L 1.515625 0 Z M 1.515625 -9.3125 "/></g></g></g></svg>