<svg xmlns="http://www.w3.org/2000/svg" xmlns:xlink="http://www.w3.org/1999/xlink" width="500" zoomAndPan="magnify" viewBox="0 0 375 374.999991" height="500" preserveAspectRatio="xMidYMid meet" version="1.0"><defs><g/></defs><rect x="-37.5" width="450" fill="#ffffff" y="-37.499999" height="449.999989" fill-opacity="1"/><rect x="-37.5" width="450" fill="#eb7178" y="-37.499999" height="449.999989" fill-opacity="1"/><g fill="#ffffff" fill-opacity="1"><g transform="translate(47.910937, 267.739494)"><g><path d="M 2.84375 -24.78125 C 4.550781 -25.007812 6.3125 -25.125 8.125 -25.125 C 11.476562 -25.125 14.03125 -24.332031 15.78125 -22.75 C 17.53125 -21.175781 18.40625 -18.820312 18.40625 -15.6875 C 18.40625 -12.875 17.445312 -10.65625 15.53125 -9.03125 C 13.738281 -7.5 11.4375 -6.734375 8.625 -6.734375 C 8.300781 -6.734375 7.945312 -6.75 7.5625 -6.78125 L 7.5625 0 L 2.84375 0 Z M 8.671875 -20.65625 C 8.304688 -20.65625 7.9375 -20.640625 7.5625 -20.609375 L 7.5625 -10.859375 C 7.957031 -10.816406 8.4375 -10.796875 9 -10.796875 C 9.570312 -10.796875 10.164062 -10.914062 10.78125 -11.15625 C 11.40625 -11.394531 11.925781 -11.726562 12.34375 -12.15625 C 13.21875 -13.0625 13.65625 -14.25 13.65625 -15.71875 C 13.65625 -19.007812 11.992188 -20.65625 8.671875 -20.65625 Z M 8.671875 -20.65625 "/></g></g></g><g fill="#ffffff" fill-opacity="1"><g transform="translate(67.729956, 267.739494)"><g><path d="M 15.59375 -4.453125 C 16.351562 -4.453125 16.882812 -4.523438 17.1875 -4.671875 L 17.265625 -4.65625 L 17.078125 0 L 3.1875 0 L 3.1875 -24.78125 C 3.519531 -24.757812 3.890625 -24.742188 4.296875 -24.734375 L 5.59375 -24.6875 C 6.457031 -24.664062 7.398438 -24.65625 8.421875 -24.65625 C 11.242188 -24.65625 14.039062 -24.707031 16.8125 -24.8125 C 16.675781 -23.71875 16.609375 -22.265625 16.609375 -20.453125 C 16.609375 -20.253906 16.617188 -20.101562 16.640625 -20 L 16.609375 -19.953125 C 15.960938 -20.128906 15.050781 -20.21875 13.875 -20.21875 L 8.03125 -20.21875 L 8.03125 -15.5 L 12.421875 -15.5 C 13.773438 -15.5 14.59375 -15.535156 14.875 -15.609375 L 14.921875 -11.03125 C 14.328125 -11.09375 13.5625 -11.125 12.625 -11.125 L 8.03125 -11.125 L 8.03125 -4.453125 Z M 15.59375 -4.453125 "/></g></g></g><g fill="#ffffff" fill-opacity="1"><g transform="translate(87.548974, 267.739494)"><g><path d="M 12.09375 0.109375 C 11.5 0.0351562 9.972656 0 7.515625 0 L 6.921875 0 L 6.921875 -20.5 L 3.25 -20.5 C 2.15625 -20.5 1.507812 -20.441406 1.3125 -20.328125 C 1.113281 -20.222656 0.960938 -20.128906 0.859375 -20.046875 L 0.796875 -20.0625 L 0.796875 -24.8125 L 0.859375 -24.859375 C 1.265625 -24.722656 2.363281 -24.65625 4.15625 -24.65625 L 15.78125 -24.65625 C 16.863281 -24.65625 17.503906 -24.707031 17.703125 -24.8125 C 17.898438 -24.925781 18.054688 -25.03125 18.171875 -25.125 L 18.21875 -25.109375 L 18.21875 -20.359375 L 18.171875 -20.296875 C 17.765625 -20.429688 16.664062 -20.5 14.875 -20.5 L 12.09375 -20.5 Z M 12.09375 0.109375 "/></g></g></g><g fill="#ffffff" fill-opacity="1"><g transform="translate(107.367992, 267.739494)"><g/></g></g><g fill="#ffffff" fill-opacity="1"><g transform="translate(120.75383, 267.739494)"><g><path d="M 13.734375 0.078125 C 13.335938 0.0234375 12.691406 0 11.796875 0 L 9.75 0 C 9.414062 0 9.113281 0.0078125 8.84375 0.03125 L 8.828125 0 C 8.878906 -0.0820312 8.90625 -0.179688 8.90625 -0.296875 C 8.90625 -0.410156 8.894531 -0.523438 8.875 -0.640625 C 8.851562 -0.765625 8.796875 -0.988281 8.703125 -1.3125 C 8.617188 -1.632812 8.488281 -2.097656 8.3125 -2.703125 L 7.53125 -5.1875 L 0.625 -24.734375 C 1.394531 -24.679688 2.375 -24.65625 3.5625 -24.65625 C 4.75 -24.65625 5.507812 -24.707031 5.84375 -24.8125 L 11.421875 -7.953125 L 16.3125 -24.734375 C 17.050781 -24.679688 17.96875 -24.65625 19.0625 -24.65625 C 20.539062 -24.65625 21.40625 -24.707031 21.65625 -24.8125 L 14.890625 -5.25 C 14.890625 -5.25 14.671875 -4.523438 14.234375 -3.078125 C 13.878906 -1.835938 13.703125 -1.035156 13.703125 -0.671875 C 13.703125 -0.304688 13.726562 -0.078125 13.78125 0.015625 Z M 13.734375 0.078125 "/></g></g></g><g fill="#ffffff" fill-opacity="1"><g transform="translate(143.668934, 267.739494)"><g><path d="M 15.59375 -4.453125 C 16.351562 -4.453125 16.882812 -4.523438 17.1875 -4.671875 L 17.265625 -4.65625 L 17.078125 0 L 3.1875 0 L 3.1875 -24.78125 C 3.519531 -24.757812 3.890625 -24.742188 4.296875 -24.734375 L 5.59375 -24.6875 C 6.457031 -24.664062 7.398438 -24.65625 8.421875 -24.65625 C 11.242188 -24.65625 14.039062 -24.707031 16.8125 -24.8125 C 16.675781 -23.71875 16.609375 -22.265625 16.609375 -20.453125 C 16.609375 -20.253906 16.617188 -20.101562 16.640625 -20 L 16.609375 -19.953125 C 15.960938 -20.128906 15.050781 -20.21875 13.875 -20.21875 L 8.03125 -20.21875 L 8.03125 -15.5 L 12.421875 -15.5 C 13.773438 -15.5 14.59375 -15.535156 14.875 -15.609375 L 14.921875 -11.03125 C 14.328125 -11.09375 13.5625 -11.125 12.625 -11.125 L 8.03125 -11.125 L 8.03125 -4.453125 Z M 15.59375 -4.453125 "/></g></g></g><g fill="#ffffff" fill-opacity="1"><g transform="translate(163.487948, 267.739494)"><g><path d="M 12.09375 0.109375 C 11.5 0.0351562 9.972656 0 7.515625 0 L 6.921875 0 L 6.921875 -20.5 L 3.25 -20.5 C 2.15625 -20.5 1.507812 -20.441406 1.3125 -20.328125 C 1.113281 -20.222656 0.960938 -20.128906 0.859375 -20.046875 L 0.796875 -20.0625 L 0.796875 -24.8125 L 0.859375 -24.859375 C 1.265625 -24.722656 2.363281 -24.65625 4.15625 -24.65625 L 15.78125 -24.65625 C 16.863281 -24.65625 17.503906 -24.707031 17.703125 -24.8125 C 17.898438 -24.925781 18.054688 -25.03125 18.171875 -25.125 L 18.21875 -25.109375 L 18.21875 -20.359375 L 18.171875 -20.296875 C 17.765625 -20.429688 16.664062 -20.5 14.875 -20.5 L 12.09375 -20.5 Z M 12.09375 0.109375 "/></g></g></g><g fill="#ffffff" fill-opacity="1"><g transform="translate(183.306963, 267.739494)"><g/></g></g><g fill="#ffffff" fill-opacity="1"><g transform="translate(196.692795, 267.739494)"><g><path d="M 5.203125 -2.921875 C 4.078125 -4.003906 3.191406 -5.296875 2.546875 -6.796875 C 1.898438 -8.304688 1.578125 -9.957031 1.578125 -11.75 C 1.578125 -13.550781 1.878906 -15.253906 2.484375 -16.859375 C 3.085938 -18.472656 3.953125 -19.890625 5.078125 -21.109375 C 6.203125 -22.335938 7.5625 -23.3125 9.15625 -24.03125 C 10.75 -24.757812 12.535156 -25.125 14.515625 -25.125 C 17.929688 -25.125 20.804688 -24.046875 23.140625 -21.890625 C 25.628906 -19.597656 26.875 -16.5 26.875 -12.59375 C 26.875 -8.8125 25.59375 -5.664062 23.03125 -3.15625 C 21.445312 -1.601562 19.5625 -0.539062 17.375 0.03125 C 16.300781 0.320312 15.039062 0.46875 13.59375 0.46875 C 12.15625 0.46875 10.675781 0.171875 9.15625 -0.421875 C 7.644531 -1.015625 6.328125 -1.847656 5.203125 -2.921875 Z M 6.734375 -12.015625 C 6.734375 -10.867188 6.921875 -9.8125 7.296875 -8.84375 C 7.679688 -7.875 8.21875 -7.046875 8.90625 -6.359375 C 10.34375 -4.898438 12.203125 -4.171875 14.484375 -4.171875 C 16.640625 -4.171875 18.375 -4.867188 19.6875 -6.265625 C 21.019531 -7.710938 21.6875 -9.6875 21.6875 -12.1875 C 21.6875 -14.53125 21.050781 -16.488281 19.78125 -18.0625 C 18.40625 -19.738281 16.523438 -20.578125 14.140625 -20.578125 C 11.828125 -20.578125 9.992188 -19.722656 8.640625 -18.015625 C 7.367188 -16.421875 6.734375 -14.421875 6.734375 -12.015625 Z M 6.734375 -12.015625 "/></g></g></g><g fill="#ffffff" fill-opacity="1"><g transform="translate(225.948378, 267.739494)"><g><path d="M 3.359375 0 C 3.429688 -0.414062 3.46875 -0.875 3.46875 -1.375 L 3.46875 -24.65625 L 7.171875 -24.65625 L 17 -9.203125 L 17 -23.390625 C 17 -24.078125 16.9375 -24.5 16.8125 -24.65625 L 21.828125 -24.65625 C 21.765625 -24.164062 21.734375 -23.625 21.734375 -23.03125 L 21.734375 0 L 17.875 0 L 8.1875 -14.84375 L 8.1875 0 Z M 3.359375 0 "/></g></g></g><g fill="#ffffff" fill-opacity="1"><g transform="translate(251.941021, 267.739494)"><g><path d="M 6.796875 0 C 4.984375 0 3.78125 0.0351562 3.1875 0.109375 L 3.1875 -24.765625 C 3.488281 -24.691406 4.101562 -24.65625 5.03125 -24.65625 C 5.96875 -24.65625 7.050781 -24.679688 8.28125 -24.734375 L 8.28125 -4.453125 L 12.125 -4.453125 C 13.238281 -4.453125 14.128906 -4.488281 14.796875 -4.5625 C 14.710938 -1.664062 14.671875 -0.164062 14.671875 -0.0625 L 14.671875 0.125 C 13.453125 0.0390625 11.414062 0 8.5625 0 Z M 6.796875 0 "/></g></g></g><g fill="#ffffff" fill-opacity="1"><g transform="translate(268.589793, 267.739494)"><g><path d="M 3.765625 -24.734375 C 5.003906 -24.679688 5.75 -24.65625 6 -24.65625 L 7.34375 -24.65625 C 8 -24.65625 8.523438 -24.707031 8.921875 -24.8125 L 8.90625 0 L 3.765625 0 Z M 3.765625 -24.734375 "/></g></g></g><g fill="#ffffff" fill-opacity="1"><g transform="translate(282.068323, 267.739494)"><g><path d="M 3.359375 0 C 3.429688 -0.414062 3.46875 -0.875 3.46875 -1.375 L 3.46875 -24.65625 L 7.171875 -24.65625 L 17 -9.203125 L 17 -23.390625 C 17 -24.078125 16.9375 -24.5 16.8125 -24.65625 L 21.828125 -24.65625 C 21.765625 -24.164062 21.734375 -23.625 21.734375 -23.03125 L 21.734375 0 L 17.875 0 L 8.1875 -14.84375 L 8.1875 0 Z M 3.359375 0 "/></g></g></g><g fill="#ffffff" fill-opacity="1"><g transform="translate(308.060967, 267.739494)"><g><path d="M 15.59375 -4.453125 C 16.351562 -4.453125 16.882812 -4.523438 17.1875 -4.671875 L 17.265625 -4.65625 L 17.078125 0 L 3.1875 0 L 3.1875 -24.78125 C 3.519531 -24.757812 3.890625 -24.742188 4.296875 -24.734375 L 5.59375 -24.6875 C 6.457031 -24.664062 7.398438 -24.65625 8.421875 -24.65625 C 11.242188 -24.65625 14.039062 -24.707031 16.8125 -24.8125 C 16.675781 -23.71875 16.609375 -22.265625 16.609375 -20.453125 C 16.609375 -20.253906 16.617188 -20.101562 16.640625 -20 L 16.609375 -19.953125 C 15.960938 -20.128906 15.050781 -20.21875 13.875 -20.21875 L 8.03125 -20.21875 L 8.03125 -15.5 L 12.421875 -15.5 C 13.773438 -15.5 14.59375 -15.535156 14.875 -15.609375 L 14.921875 -11.03125 C 14.328125 -11.09375 13.5625 -11.125 12.625 -11.125 L 8.03125 -11.125 L 8.03125 -4.453125 Z M 15.59375 -4.453125 "/></g></g></g><g fill="#fffbe1" fill-opacity="1"><g transform="translate(78.614783, 285.09836)"><g><path d="M 10.609375 -10.625 L 10.609375 0 L 9.5 0 L 9.5 -4.90625 L 2.859375 -4.90625 L 2.859375 0 L 1.734375 0 L 1.734375 -10.625 L 2.859375 -10.625 L 2.859375 -5.890625 L 9.5 -5.890625 L 9.5 -10.625 Z M 10.609375 -10.625 "/></g></g></g><g fill="#fffbe1" fill-opacity="1"><g transform="translate(96.18819, 285.09836)"><g><path d="M 6.375 0.09375 C 5.320312 0.09375 4.367188 -0.140625 3.515625 -0.609375 C 2.660156 -1.085938 1.992188 -1.734375 1.515625 -2.546875 C 1.035156 -3.367188 0.796875 -4.289062 0.796875 -5.3125 C 0.796875 -6.332031 1.035156 -7.253906 1.515625 -8.078125 C 1.992188 -8.898438 2.660156 -9.546875 3.515625 -10.015625 C 4.367188 -10.484375 5.320312 -10.71875 6.375 -10.71875 C 7.425781 -10.71875 8.375 -10.484375 9.21875 -10.015625 C 10.070312 -9.554688 10.738281 -8.910156 11.21875 -8.078125 C 11.707031 -7.253906 11.953125 -6.332031 11.953125 -5.3125 C 11.953125 -4.289062 11.707031 -3.367188 11.21875 -2.546875 C 10.738281 -1.722656 10.070312 -1.078125 9.21875 -0.609375 C 8.375 -0.140625 7.425781 0.09375 6.375 0.09375 Z M 6.375 -0.90625 C 7.21875 -0.90625 7.976562 -1.09375 8.65625 -1.46875 C 9.332031 -1.851562 9.863281 -2.378906 10.25 -3.046875 C 10.632812 -3.722656 10.828125 -4.476562 10.828125 -5.3125 C 10.828125 -6.144531 10.632812 -6.894531 10.25 -7.5625 C 9.863281 -8.238281 9.332031 -8.765625 8.65625 -9.140625 C 7.976562 -9.523438 7.21875 -9.71875 6.375 -9.71875 C 5.539062 -9.71875 4.78125 -9.523438 4.09375 -9.140625 C 3.40625 -8.765625 2.867188 -8.238281 2.484375 -7.5625 C 2.097656 -6.894531 1.90625 -6.144531 1.90625 -5.3125 C 1.90625 -4.476562 2.097656 -3.722656 2.484375 -3.046875 C 2.867188 -2.378906 3.40625 -1.851562 4.09375 -1.46875 C 4.78125 -1.09375 5.539062 -0.90625 6.375 -0.90625 Z M 6.375 -0.90625 "/></g></g></g><g fill="#fffbe1" fill-opacity="1"><g transform="translate(114.156474, 285.09836)"><g><path d="M 4.65625 0.09375 C 3.875 0.09375 3.117188 -0.03125 2.390625 -0.28125 C 1.671875 -0.539062 1.113281 -0.878906 0.71875 -1.296875 L 1.15625 -2.15625 C 1.539062 -1.769531 2.050781 -1.457031 2.6875 -1.21875 C 3.320312 -0.976562 3.976562 -0.859375 4.65625 -0.859375 C 5.613281 -0.859375 6.328125 -1.03125 6.796875 -1.375 C 7.273438 -1.726562 7.515625 -2.1875 7.515625 -2.75 C 7.515625 -3.175781 7.382812 -3.515625 7.125 -3.765625 C 6.875 -4.015625 6.5625 -4.207031 6.1875 -4.34375 C 5.8125 -4.488281 5.285156 -4.640625 4.609375 -4.796875 C 3.816406 -5.003906 3.179688 -5.203125 2.703125 -5.390625 C 2.222656 -5.578125 1.8125 -5.859375 1.46875 -6.234375 C 1.132812 -6.617188 0.96875 -7.144531 0.96875 -7.8125 C 0.96875 -8.34375 1.109375 -8.828125 1.390625 -9.265625 C 1.679688 -9.710938 2.117188 -10.066406 2.703125 -10.328125 C 3.285156 -10.585938 4.015625 -10.71875 4.890625 -10.71875 C 5.492188 -10.71875 6.085938 -10.632812 6.671875 -10.46875 C 7.253906 -10.300781 7.757812 -10.070312 8.1875 -9.78125 L 7.8125 -8.890625 C 7.363281 -9.179688 6.882812 -9.398438 6.375 -9.546875 C 5.875 -9.691406 5.378906 -9.765625 4.890625 -9.765625 C 3.960938 -9.765625 3.257812 -9.582031 2.78125 -9.21875 C 2.3125 -8.863281 2.078125 -8.40625 2.078125 -7.84375 C 2.078125 -7.414062 2.207031 -7.070312 2.46875 -6.8125 C 2.726562 -6.550781 3.050781 -6.351562 3.4375 -6.21875 C 3.832031 -6.082031 4.359375 -5.929688 5.015625 -5.765625 C 5.796875 -5.578125 6.425781 -5.390625 6.90625 -5.203125 C 7.382812 -5.015625 7.789062 -4.726562 8.125 -4.34375 C 8.457031 -3.96875 8.625 -3.457031 8.625 -2.8125 C 8.625 -2.269531 8.476562 -1.78125 8.1875 -1.34375 C 7.90625 -0.90625 7.460938 -0.554688 6.859375 -0.296875 C 6.265625 -0.0351562 5.53125 0.09375 4.65625 0.09375 Z M 4.65625 0.09375 "/></g></g></g><g fill="#fffbe1" fill-opacity="1"><g transform="translate(128.722736, 285.09836)"><g><path d="M 5.703125 -10.625 C 7.066406 -10.625 8.128906 -10.300781 8.890625 -9.65625 C 9.660156 -9.007812 10.046875 -8.117188 10.046875 -6.984375 C 10.046875 -5.847656 9.660156 -4.957031 8.890625 -4.3125 C 8.128906 -3.675781 7.066406 -3.359375 5.703125 -3.359375 L 2.859375 -3.359375 L 2.859375 0 L 1.734375 0 L 1.734375 -10.625 Z M 5.6875 -4.34375 C 6.738281 -4.34375 7.539062 -4.570312 8.09375 -5.03125 C 8.65625 -5.488281 8.9375 -6.140625 8.9375 -6.984375 C 8.9375 -7.847656 8.65625 -8.507812 8.09375 -8.96875 C 7.539062 -9.425781 6.738281 -9.65625 5.6875 -9.65625 L 2.859375 -9.65625 L 2.859375 -4.34375 Z M 5.6875 -4.34375 "/></g></g></g><g fill="#fffbe1" fill-opacity="1"><g transform="translate(144.853331, 285.09836)"><g><path d="M 1.734375 -10.625 L 2.859375 -10.625 L 2.859375 0 L 1.734375 0 Z M 1.734375 -10.625 "/></g></g></g><g fill="#fffbe1" fill-opacity="1"><g transform="translate(154.665896, 285.09836)"><g><path d="M 3.796875 -9.65625 L 0.0625 -9.65625 L 0.0625 -10.625 L 8.65625 -10.625 L 8.65625 -9.65625 L 4.921875 -9.65625 L 4.921875 0 L 3.796875 0 Z M 3.796875 -9.65625 "/></g></g></g><g fill="#fffbe1" fill-opacity="1"><g transform="translate(168.609479, 285.09836)"><g><path d="M 8.40625 -2.84375 L 2.46875 -2.84375 L 1.203125 0 L 0.03125 0 L 4.890625 -10.625 L 6 -10.625 L 10.859375 0 L 9.671875 0 Z M 7.984375 -3.75 L 5.4375 -9.46875 L 2.890625 -3.75 Z M 7.984375 -3.75 "/></g></g></g><g fill="#fffbe1" fill-opacity="1"><g transform="translate(184.724877, 285.09836)"><g><path d="M 1.734375 -10.625 L 2.859375 -10.625 L 2.859375 -0.96875 L 8.8125 -0.96875 L 8.8125 0 L 1.734375 0 Z M 1.734375 -10.625 "/></g></g></g><g fill="#fffbe1" fill-opacity="1"><g transform="translate(198.896266, 285.09836)"><g/></g></g><g fill="#fffbe1" fill-opacity="1"><g transform="translate(208.101332, 285.09836)"><g><path d="M 8.40625 -2.84375 L 2.46875 -2.84375 L 1.203125 0 L 0.03125 0 L 4.890625 -10.625 L 6 -10.625 L 10.859375 0 L 9.671875 0 Z M 7.984375 -3.75 L 5.4375 -9.46875 L 2.890625 -3.75 Z M 7.984375 -3.75 "/></g></g></g><g fill="#fffbe1" fill-opacity="1"><g transform="translate(224.216729, 285.09836)"><g><path d="M 10.609375 -10.625 L 10.609375 0 L 9.6875 0 L 2.859375 -8.625 L 2.859375 0 L 1.734375 0 L 1.734375 -10.625 L 2.65625 -10.625 L 9.5 -2 L 9.5 -10.625 Z M 10.609375 -10.625 "/></g></g></g><g fill="#fffbe1" fill-opacity="1"><g transform="translate(241.790138, 285.09836)"><g><path d="M 1.734375 -10.625 L 2.859375 -10.625 L 2.859375 0 L 1.734375 0 Z M 1.734375 -10.625 "/></g></g></g><g fill="#fffbe1" fill-opacity="1"><g transform="translate(251.602702, 285.09836)"><g><path d="M 12.765625 -10.625 L 12.765625 0 L 11.6875 0 L 11.6875 -8.5 L 7.515625 -1.359375 L 6.984375 -1.359375 L 2.8125 -8.453125 L 2.8125 0 L 1.734375 0 L 1.734375 -10.625 L 2.65625 -10.625 L 7.28125 -2.75 L 11.84375 -10.625 Z M 12.765625 -10.625 "/></g></g></g><g fill="#fffbe1" fill-opacity="1"><g transform="translate(271.332727, 285.09836)"><g><path d="M 8.40625 -2.84375 L 2.46875 -2.84375 L 1.203125 0 L 0.03125 0 L 4.890625 -10.625 L 6 -10.625 L 10.859375 0 L 9.671875 0 Z M 7.984375 -3.75 L 5.4375 -9.46875 L 2.890625 -3.75 Z M 7.984375 -3.75 "/></g></g></g><g fill="#fffbe1" fill-opacity="1"><g transform="translate(287.448114, 285.09836)"><g><path d="M 1.734375 -10.625 L 2.859375 -10.625 L 2.859375 -0.96875 L 8.8125 -0.96875 L 8.8125 0 L 1.734375 0 Z M 1.734375 -10.625 "/></g></g></g><path fill="#fffbe1" d="M 123.945312 133.117188 C 123.945312 133.117188 129.550781 137.195312 134.136719 136.175781 C 134.136719 136.175781 140.503906 131.585938 143.816406 131.332031 C 143.816406 131.332031 151.714844 135.921875 159.105469 131.839844 C 159.105469 131.839844 162.160156 135.667969 162.160156 140.511719 C 161.90625 145.101562 155.792969 148.671875 155.792969 155.8125 C 156.046875 163.207031 159.359375 172.386719 161.652344 178.761719 C 163.691406 185.394531 168.277344 211.402344 137.703125 204.519531 C 155.027344 213.1875 172.097656 202.734375 173.371094 182.589844 C 173.628906 175.191406 178.214844 177.996094 178.46875 183.863281 C 180.25 233.335938 100.503906 228.488281 126.746094 169.328125 C 130.824219 160.148438 129.550781 150.457031 126.492188 146.632812 C 123.433594 142.804688 122.925781 133.882812 123.945312 133.117188 Z M 147.128906 135.410156 C 147.894531 135.667969 148.402344 136.429688 148.402344 137.195312 C 148.402344 138.214844 147.386719 138.980469 146.367188 138.980469 C 145.347656 138.980469 144.582031 138.214844 144.582031 137.195312 C 144.582031 136.6875 144.835938 136.175781 145.347656 135.667969 C 145.347656 136.175781 145.855469 136.429688 146.109375 136.429688 C 146.875 136.429688 147.128906 136.175781 147.128906 135.667969 C 147.128906 135.410156 147.128906 135.410156 147.128906 135.410156 Z M 147.128906 135.410156 " fill-opacity="1" fill-rule="evenodd"/><path fill="#ffffff" d="M 223.054688 206.046875 C 201.398438 207.832031 187.894531 191.769531 185.855469 169.328125 C 184.835938 159.128906 177.703125 164.992188 178.214844 170.859375 C 179.996094 202.222656 202.671875 218.289062 227.894531 217.523438 C 272.992188 216.25 253.371094 139.234375 231.972656 117.816406 C 231.972656 117.816406 226.875 126.996094 219.488281 128.269531 C 211.84375 129.289062 203.945312 122.152344 203.179688 106.085938 C 205.21875 119.34375 217.957031 134.136719 227.386719 118.324219 C 230.953125 112.207031 231.207031 105.066406 227.640625 102.003906 C 224.328125 98.945312 208.023438 89 199.359375 91.039062 C 190.699219 93.078125 182.542969 99.964844 181.523438 104.300781 C 180.507812 109.144531 181.523438 111.183594 179.996094 114.753906 C 178.46875 118.324219 174.390625 123.171875 170.570312 126.742188 C 175.664062 138.472656 180.507812 138.980469 191.972656 136.429688 C 196.8125 135.410156 206.75 140.765625 204.457031 156.320312 C 203.691406 160.910156 201.652344 164.992188 199.871094 169.074219 C 191.460938 188.199219 203.691406 202.734375 223.054688 206.046875 Z M 187.894531 108.378906 C 188.660156 108.890625 189.421875 109.65625 189.421875 110.675781 C 189.421875 112.207031 188.148438 113.226562 186.875 113.226562 C 185.347656 113.226562 184.328125 112.207031 184.328125 110.675781 C 184.328125 109.910156 184.835938 109.144531 185.347656 108.890625 C 185.347656 109.398438 185.855469 109.910156 186.621094 109.910156 C 187.386719 109.910156 187.894531 109.144531 187.894531 108.636719 C 187.894531 108.378906 187.894531 108.378906 187.894531 108.378906 Z M 187.894531 108.378906 " fill-opacity="1" fill-rule="evenodd"/></svg>