<svg xmlns="http://www.w3.org/2000/svg" xmlns:xlink="http://www.w3.org/1999/xlink" width="500" zoomAndPan="magnify" viewBox="0 0 375 374.999991" height="500" preserveAspectRatio="xMidYMid meet" version="1.0"><path fill="#fffbe1" d="M 77.207031 139.515625 C 77.207031 139.515625 86.910156 146.585938 94.851562 144.816406 C 94.851562 144.816406 105.882812 136.867188 111.617188 136.425781 C 111.617188 136.425781 125.292969 144.375 138.089844 137.308594 C 138.089844 137.308594 143.382812 143.933594 143.382812 152.328125 C 142.941406 160.28125 132.351562 166.464844 132.351562 178.835938 C 132.792969 191.644531 138.53125 207.550781 142.5 218.59375 C 146.03125 230.082031 153.96875 275.144531 101.03125 263.214844 C 131.03125 278.234375 160.589844 260.121094 162.792969 225.222656 C 163.234375 212.410156 171.175781 217.269531 171.617188 227.429688 C 174.707031 313.136719 36.617188 304.742188 82.058594 202.25 C 89.117188 186.34375 86.910156 169.558594 81.617188 162.929688 C 76.324219 156.304688 75.441406 140.839844 77.207031 139.515625 Z M 117.351562 143.492188 C 118.675781 143.933594 119.558594 145.257812 119.558594 146.585938 C 119.558594 148.351562 117.792969 149.675781 116.03125 149.675781 C 114.265625 149.675781 112.941406 148.351562 112.941406 146.585938 C 112.941406 145.703125 113.382812 144.816406 114.265625 143.933594 C 114.265625 144.816406 115.148438 145.257812 115.589844 145.257812 C 116.910156 145.257812 117.351562 144.816406 117.351562 143.933594 C 117.351562 143.492188 117.351562 143.492188 117.351562 143.492188 Z M 117.351562 143.492188 " fill-opacity="1" fill-rule="evenodd"/><path fill="#ffffff" d="M 248.824219 265.867188 C 211.324219 268.957031 187.941406 241.125 184.410156 202.25 C 182.648438 184.578125 170.292969 194.738281 171.175781 204.898438 C 174.265625 259.238281 213.53125 287.070312 257.207031 285.746094 C 335.292969 283.535156 301.324219 150.117188 264.265625 113.007812 C 264.265625 113.007812 255.441406 128.914062 242.648438 131.121094 C 229.410156 132.890625 215.734375 120.519531 214.410156 92.6875 C 217.941406 115.660156 240 141.285156 256.324219 113.894531 C 262.5 103.289062 262.941406 90.921875 256.765625 85.621094 C 251.03125 80.316406 222.792969 63.089844 207.792969 66.621094 C 192.792969 70.15625 178.675781 82.085938 176.910156 89.59375 C 175.148438 97.988281 176.910156 101.523438 174.265625 107.707031 C 171.617188 113.894531 164.558594 122.285156 157.941406 128.472656 C 166.765625 148.792969 175.148438 149.675781 195 145.257812 C 203.382812 143.492188 220.589844 152.769531 216.617188 179.71875 C 215.292969 187.671875 211.765625 194.738281 208.675781 201.808594 C 194.117188 234.941406 215.292969 260.121094 248.824219 265.867188 Z M 187.941406 96.664062 C 189.265625 97.546875 190.589844 98.871094 190.589844 100.640625 C 190.589844 103.289062 188.382812 105.058594 186.175781 105.058594 C 183.53125 105.058594 181.765625 103.289062 181.765625 100.640625 C 181.765625 99.3125 182.648438 97.988281 183.53125 97.546875 C 183.53125 98.429688 184.410156 99.3125 185.734375 99.3125 C 187.058594 99.3125 187.941406 97.988281 187.941406 97.105469 C 187.941406 96.664062 187.941406 96.664062 187.941406 96.664062 Z M 187.941406 96.664062 " fill-opacity="1" fill-rule="evenodd"/></svg>